<mxfile host="app.diagrams.net" modified="2021-08-30T16:20:04.167Z" agent="5.0 (Windows NT 10.0; Win64; x64) AppleWebKit/537.36 (KHTML, like Gecko) Chrome/92.0.4515.159 Safari/537.36" etag="S3IRF2wZSlMLs6V5r_rc" version="14.6.5" type="github" pages="2">
  <diagram id="gqE2nTAlCZ83uSKmBQ27" name="Page-1">
    <mxGraphModel dx="782" dy="446" grid="1" gridSize="10" guides="1" tooltips="1" connect="1" arrows="1" fold="1" page="1" pageScale="1" pageWidth="850" pageHeight="1100" math="0" shadow="0">
      <root>
        <mxCell id="0" />
        <mxCell id="1" parent="0" />
        <mxCell id="dW8ghFBEc_GHJCVq4qqt-1" value="" style="aspect=fixed;perimeter=ellipsePerimeter;html=1;align=center;shadow=0;dashed=0;spacingTop=3;image;image=img/lib/active_directory/user_accounts.svg;" vertex="1" parent="1">
          <mxGeometry x="40" y="120" width="40.72" height="39.5" as="geometry" />
        </mxCell>
        <mxCell id="dW8ghFBEc_GHJCVq4qqt-2" value="" style="verticalLabelPosition=bottom;html=1;fillColor=#6ABD46;strokeColor=#ffffff;verticalAlign=top;align=center;points=[[0.085,0.085,0],[0.915,0.085,0],[0.915,0.915,0],[0.085,0.915,0],[0.25,0,0],[0.5,0,0],[0.75,0,0],[1,0.25,0],[1,0.5,0],[1,0.75,0],[0.75,1,0],[0.5,1,0],[0.25,1,0],[0,0.75,0],[0,0.5,0],[0,0.25,0]];pointerEvents=1;shape=mxgraph.cisco_safe.compositeIcon;bgIcon=mxgraph.cisco_safe.architecture.generic_appliance;resIcon=mxgraph.cisco_safe.architecture.automated_system;fontColor=#6C8EBF;" vertex="1" parent="1">
          <mxGeometry x="280" y="120" width="40" height="40" as="geometry" />
        </mxCell>
        <mxCell id="dW8ghFBEc_GHJCVq4qqt-4" style="edgeStyle=orthogonalEdgeStyle;rounded=0;orthogonalLoop=1;jettySize=auto;html=1;strokeColor=#6C8EBF;strokeWidth=2;fontColor=#6C8EBF;entryX=0;entryY=0.5;entryDx=0;entryDy=0;dashed=1;entryPerimeter=0;" edge="1" parent="1" target="dW8ghFBEc_GHJCVq4qqt-2">
          <mxGeometry relative="1" as="geometry">
            <mxPoint x="120" y="140" as="targetPoint" />
            <mxPoint x="80.71993475394129" y="139.79999999999995" as="sourcePoint" />
          </mxGeometry>
        </mxCell>
        <mxCell id="dW8ghFBEc_GHJCVq4qqt-11" style="edgeStyle=orthogonalEdgeStyle;rounded=0;orthogonalLoop=1;jettySize=auto;html=1;entryX=0;entryY=0.5;entryDx=0;entryDy=0;strokeColor=#6C8EBF;strokeWidth=2;" edge="1" parent="1" source="dW8ghFBEc_GHJCVq4qqt-5" target="dW8ghFBEc_GHJCVq4qqt-10">
          <mxGeometry relative="1" as="geometry" />
        </mxCell>
        <mxCell id="dW8ghFBEc_GHJCVq4qqt-5" value="" style="verticalLabelPosition=bottom;html=1;fillColor=#6ABD46;strokeColor=#ffffff;verticalAlign=top;align=center;points=[[0.085,0.085,0],[0.915,0.085,0],[0.915,0.915,0],[0.085,0.915,0],[0.25,0,0],[0.5,0,0],[0.75,0,0],[1,0.25,0],[1,0.5,0],[1,0.75,0],[0.75,1,0],[0.5,1,0],[0.25,1,0],[0,0.75,0],[0,0.5,0],[0,0.25,0]];pointerEvents=1;shape=mxgraph.cisco_safe.compositeIcon;bgIcon=mxgraph.cisco_safe.architecture.generic_appliance;resIcon=mxgraph.cisco_safe.architecture.automated_system;fontColor=#6C8EBF;" vertex="1" parent="1">
          <mxGeometry x="40" y="320" width="40" height="40" as="geometry" />
        </mxCell>
        <mxCell id="dW8ghFBEc_GHJCVq4qqt-7" value="" style="endArrow=classic;html=1;strokeWidth=2;strokeColor=#6C8EBF;exitX=0.085;exitY=0.915;exitDx=0;exitDy=0;exitPerimeter=0;entryX=0.915;entryY=0.085;entryDx=0;entryDy=0;entryPerimeter=0;" edge="1" parent="1" source="dW8ghFBEc_GHJCVq4qqt-2" target="dW8ghFBEc_GHJCVq4qqt-5">
          <mxGeometry width="50" height="50" relative="1" as="geometry">
            <mxPoint x="280" y="260" as="sourcePoint" />
            <mxPoint x="330" y="210" as="targetPoint" />
          </mxGeometry>
        </mxCell>
        <mxCell id="dW8ghFBEc_GHJCVq4qqt-9" value="Login context with service &amp;amp; session id" style="text;html=1;align=center;verticalAlign=middle;whiteSpace=wrap;rounded=1;glass=0;shadow=0;dashed=1;strokeColor=#6C8EBF;fontColor=#6C8EBF;" vertex="1" parent="1">
          <mxGeometry x="50" y="225" width="120" height="30" as="geometry" />
        </mxCell>
        <mxCell id="dW8ghFBEc_GHJCVq4qqt-15" value="" style="edgeStyle=orthogonalEdgeStyle;rounded=0;orthogonalLoop=1;jettySize=auto;html=1;fontColor=#6C8EBF;startArrow=none;startFill=0;strokeColor=#6C8EBF;strokeWidth=2;" edge="1" parent="1" source="dW8ghFBEc_GHJCVq4qqt-10" target="dW8ghFBEc_GHJCVq4qqt-14">
          <mxGeometry relative="1" as="geometry" />
        </mxCell>
        <mxCell id="dW8ghFBEc_GHJCVq4qqt-10" value="Fetches Customer &amp;amp; Project details" style="rounded=1;whiteSpace=wrap;html=1;fillColor=#dae8fc;strokeColor=#6c8ebf;fontColor=#6C8EBF;" vertex="1" parent="1">
          <mxGeometry x="240" y="320" width="120" height="40" as="geometry" />
        </mxCell>
        <mxCell id="dW8ghFBEc_GHJCVq4qqt-12" style="edgeStyle=orthogonalEdgeStyle;rounded=0;orthogonalLoop=1;jettySize=auto;html=1;strokeColor=#6C8EBF;strokeWidth=2;fontColor=#6C8EBF;entryX=0.5;entryY=1;entryDx=0;entryDy=0;dashed=1;entryPerimeter=0;exitX=0.5;exitY=0;exitDx=0;exitDy=0;startArrow=classic;startFill=1;" edge="1" parent="1" source="dW8ghFBEc_GHJCVq4qqt-10" target="dW8ghFBEc_GHJCVq4qqt-2">
          <mxGeometry relative="1" as="geometry">
            <mxPoint x="290" y="150" as="targetPoint" />
            <mxPoint x="90.71993475394129" y="149.79999999999995" as="sourcePoint" />
          </mxGeometry>
        </mxCell>
        <mxCell id="dW8ghFBEc_GHJCVq4qqt-13" value="API call with service id" style="text;html=1;align=center;verticalAlign=middle;whiteSpace=wrap;rounded=1;glass=0;shadow=0;dashed=1;strokeColor=#6C8EBF;fontColor=#6C8EBF;" vertex="1" parent="1">
          <mxGeometry x="300" y="230" width="130" height="30" as="geometry" />
        </mxCell>
        <mxCell id="dW8ghFBEc_GHJCVq4qqt-17" value="" style="edgeStyle=orthogonalEdgeStyle;rounded=0;orthogonalLoop=1;jettySize=auto;html=1;fontColor=#6C8EBF;startArrow=none;startFill=0;strokeColor=#6C8EBF;strokeWidth=2;" edge="1" parent="1" source="dW8ghFBEc_GHJCVq4qqt-14" target="dW8ghFBEc_GHJCVq4qqt-16">
          <mxGeometry relative="1" as="geometry" />
        </mxCell>
        <mxCell id="dW8ghFBEc_GHJCVq4qqt-14" value="Creates Issue" style="rounded=1;whiteSpace=wrap;html=1;fillColor=#dae8fc;strokeColor=#6c8ebf;fontColor=#6C8EBF;" vertex="1" parent="1">
          <mxGeometry x="400" y="320" width="120" height="40" as="geometry" />
        </mxCell>
        <mxCell id="dW8ghFBEc_GHJCVq4qqt-16" value="Save Issue" style="rounded=1;whiteSpace=wrap;html=1;fillColor=#dae8fc;strokeColor=#6c8ebf;fontColor=#6C8EBF;" vertex="1" parent="1">
          <mxGeometry x="560" y="320" width="120" height="40" as="geometry" />
        </mxCell>
        <mxCell id="dW8ghFBEc_GHJCVq4qqt-18" value="" style="verticalLabelPosition=bottom;html=1;fillColor=#6ABD46;strokeColor=#ffffff;verticalAlign=top;align=center;points=[[0.085,0.085,0],[0.915,0.085,0],[0.915,0.915,0],[0.085,0.915,0],[0.25,0,0],[0.5,0,0],[0.75,0,0],[1,0.25,0],[1,0.5,0],[1,0.75,0],[0.75,1,0],[0.5,1,0],[0.25,1,0],[0,0.75,0],[0,0.5,0],[0,0.25,0]];pointerEvents=1;shape=mxgraph.cisco_safe.compositeIcon;bgIcon=mxgraph.cisco_safe.architecture.generic_appliance;resIcon=mxgraph.cisco_safe.architecture.automated_system;fontColor=#6C8EBF;" vertex="1" parent="1">
          <mxGeometry x="600" y="119.5" width="40" height="40" as="geometry" />
        </mxCell>
        <mxCell id="dW8ghFBEc_GHJCVq4qqt-20" style="edgeStyle=orthogonalEdgeStyle;rounded=0;orthogonalLoop=1;jettySize=auto;html=1;strokeColor=#6C8EBF;strokeWidth=2;fontColor=#6C8EBF;entryX=0.5;entryY=1;entryDx=0;entryDy=0;dashed=1;entryPerimeter=0;exitX=0.5;exitY=0;exitDx=0;exitDy=0;startArrow=classic;startFill=1;" edge="1" parent="1">
          <mxGeometry relative="1" as="geometry">
            <mxPoint x="619.5" y="160" as="targetPoint" />
            <mxPoint x="619.5" y="320" as="sourcePoint" />
          </mxGeometry>
        </mxCell>
        <mxCell id="dW8ghFBEc_GHJCVq4qqt-22" value="Delivery Consultant" style="text;html=1;strokeColor=none;fillColor=none;align=center;verticalAlign=middle;whiteSpace=wrap;rounded=0;fontColor=#6C8EBF;" vertex="1" parent="1">
          <mxGeometry x="30" y="159.5" width="60" height="30.5" as="geometry" />
        </mxCell>
        <mxCell id="dW8ghFBEc_GHJCVq4qqt-23" value="SDW" style="text;html=1;strokeColor=none;fillColor=none;align=center;verticalAlign=middle;whiteSpace=wrap;rounded=0;fontColor=#6C8EBF;" vertex="1" parent="1">
          <mxGeometry x="310" y="130" width="60" height="20" as="geometry" />
        </mxCell>
        <mxCell id="dW8ghFBEc_GHJCVq4qqt-24" value="Task Management" style="text;html=1;strokeColor=none;fillColor=none;align=center;verticalAlign=middle;whiteSpace=wrap;rounded=0;fontColor=#6C8EBF;" vertex="1" parent="1">
          <mxGeometry x="520" y="119.5" width="90" height="40" as="geometry" />
        </mxCell>
        <mxCell id="dW8ghFBEc_GHJCVq4qqt-25" value="IAM" style="text;html=1;strokeColor=none;fillColor=none;align=center;verticalAlign=middle;whiteSpace=wrap;rounded=0;fontColor=#6C8EBF;" vertex="1" parent="1">
          <mxGeometry x="30" y="370" width="60" height="20" as="geometry" />
        </mxCell>
        <mxCell id="dW8ghFBEc_GHJCVq4qqt-26" value="&lt;b&gt;1&lt;/b&gt;" style="ellipse;whiteSpace=wrap;html=1;aspect=fixed;strokeWidth=2;fontFamily=Tahoma;spacingBottom=4;spacingRight=2;strokeColor=#d3d3d3;rounded=1;shadow=0;glass=0;dashed=1;fontColor=#6C8EBF;fillColor=none;" vertex="1" parent="1">
          <mxGeometry x="160" y="150" width="20" height="20" as="geometry" />
        </mxCell>
        <mxCell id="dW8ghFBEc_GHJCVq4qqt-27" value="&lt;b&gt;2&lt;/b&gt;" style="ellipse;whiteSpace=wrap;html=1;aspect=fixed;strokeWidth=2;fontFamily=Tahoma;spacingBottom=4;spacingRight=2;strokeColor=#d3d3d3;rounded=1;shadow=0;glass=0;dashed=1;fontColor=#6C8EBF;fillColor=none;" vertex="1" parent="1">
          <mxGeometry x="180" y="235" width="20" height="20" as="geometry" />
        </mxCell>
        <mxCell id="dW8ghFBEc_GHJCVq4qqt-28" value="&lt;b&gt;3&lt;/b&gt;" style="ellipse;whiteSpace=wrap;html=1;aspect=fixed;strokeWidth=2;fontFamily=Tahoma;spacingBottom=4;spacingRight=2;strokeColor=#d3d3d3;rounded=1;shadow=0;glass=0;dashed=1;fontColor=#6C8EBF;fillColor=none;" vertex="1" parent="1">
          <mxGeometry x="150" y="350" width="20" height="20" as="geometry" />
        </mxCell>
        <mxCell id="dW8ghFBEc_GHJCVq4qqt-29" value="&lt;b&gt;4&lt;/b&gt;" style="ellipse;whiteSpace=wrap;html=1;aspect=fixed;strokeWidth=2;fontFamily=Tahoma;spacingBottom=4;spacingRight=2;strokeColor=#d3d3d3;rounded=1;shadow=0;glass=0;dashed=1;fontColor=#6C8EBF;fillColor=none;" vertex="1" parent="1">
          <mxGeometry x="280" y="235" width="20" height="20" as="geometry" />
        </mxCell>
        <mxCell id="dW8ghFBEc_GHJCVq4qqt-30" value="&lt;b&gt;5&lt;/b&gt;" style="ellipse;whiteSpace=wrap;html=1;aspect=fixed;strokeWidth=2;fontFamily=Tahoma;spacingBottom=4;spacingRight=2;strokeColor=#d3d3d3;rounded=1;shadow=0;glass=0;dashed=1;fontColor=#6C8EBF;fillColor=none;" vertex="1" parent="1">
          <mxGeometry x="370" y="350" width="20" height="20" as="geometry" />
        </mxCell>
        <mxCell id="dW8ghFBEc_GHJCVq4qqt-31" value="&lt;b&gt;6&lt;/b&gt;" style="ellipse;whiteSpace=wrap;html=1;aspect=fixed;strokeWidth=2;fontFamily=Tahoma;spacingBottom=4;spacingRight=2;strokeColor=#d3d3d3;rounded=1;shadow=0;glass=0;dashed=1;fontColor=#6C8EBF;fillColor=none;" vertex="1" parent="1">
          <mxGeometry x="530" y="350" width="20" height="20" as="geometry" />
        </mxCell>
        <mxCell id="dW8ghFBEc_GHJCVq4qqt-35" value="&lt;b&gt;7&lt;/b&gt;" style="ellipse;whiteSpace=wrap;html=1;aspect=fixed;strokeWidth=2;fontFamily=Tahoma;spacingBottom=4;spacingRight=2;strokeColor=#d3d3d3;rounded=1;shadow=0;glass=0;dashed=1;fontColor=#6C8EBF;fillColor=none;" vertex="1" parent="1">
          <mxGeometry x="620" y="225" width="20" height="20" as="geometry" />
        </mxCell>
      </root>
    </mxGraphModel>
  </diagram>
  <diagram id="8hxfGDfVCdp019PC3Nvt" name="Page-2">
    <mxGraphModel dx="782" dy="446" grid="1" gridSize="10" guides="1" tooltips="1" connect="1" arrows="1" fold="1" page="1" pageScale="1" pageWidth="850" pageHeight="1100" math="0" shadow="0">
      <root>
        <mxCell id="glnwGWGweWK_WqxS2E-v-0" />
        <mxCell id="glnwGWGweWK_WqxS2E-v-1" parent="glnwGWGweWK_WqxS2E-v-0" />
        <mxCell id="r62NwkxYwDVpL8HsWr-V-1" style="edgeStyle=orthogonalEdgeStyle;rounded=0;orthogonalLoop=1;jettySize=auto;html=1;entryX=0.5;entryY=0;entryDx=0;entryDy=0;entryPerimeter=0;fontColor=#6C8EBF;startArrow=none;startFill=0;strokeColor=#6C8EBF;strokeWidth=2;" edge="1" parent="glnwGWGweWK_WqxS2E-v-1" source="glnwGWGweWK_WqxS2E-v-2" target="r62NwkxYwDVpL8HsWr-V-0">
          <mxGeometry relative="1" as="geometry" />
        </mxCell>
        <mxCell id="glnwGWGweWK_WqxS2E-v-2" value="" style="aspect=fixed;perimeter=ellipsePerimeter;html=1;align=center;shadow=0;dashed=0;spacingTop=3;image;image=img/lib/active_directory/user_accounts.svg;" vertex="1" parent="glnwGWGweWK_WqxS2E-v-1">
          <mxGeometry x="40" y="120" width="40.72" height="39.5" as="geometry" />
        </mxCell>
        <mxCell id="glnwGWGweWK_WqxS2E-v-4" style="edgeStyle=orthogonalEdgeStyle;rounded=0;orthogonalLoop=1;jettySize=auto;html=1;strokeColor=#6C8EBF;strokeWidth=2;entryX=0;entryY=0.5;entryDx=0;entryDy=0;" edge="1" parent="glnwGWGweWK_WqxS2E-v-1" source="glnwGWGweWK_WqxS2E-v-5" target="glnwGWGweWK_WqxS2E-v-7">
          <mxGeometry relative="1" as="geometry">
            <mxPoint x="120" y="340" as="targetPoint" />
          </mxGeometry>
        </mxCell>
        <mxCell id="glnwGWGweWK_WqxS2E-v-5" value="" style="verticalLabelPosition=bottom;html=1;fillColor=#6ABD46;strokeColor=#ffffff;verticalAlign=top;align=center;points=[[0.085,0.085,0],[0.915,0.085,0],[0.915,0.915,0],[0.085,0.915,0],[0.25,0,0],[0.5,0,0],[0.75,0,0],[1,0.25,0],[1,0.5,0],[1,0.75,0],[0.75,1,0],[0.5,1,0],[0.25,1,0],[0,0.75,0],[0,0.5,0],[0,0.25,0]];pointerEvents=1;shape=mxgraph.cisco_safe.compositeIcon;bgIcon=mxgraph.cisco_safe.architecture.generic_appliance;resIcon=mxgraph.cisco_safe.architecture.automated_system;fontColor=#6C8EBF;" vertex="1" parent="glnwGWGweWK_WqxS2E-v-1">
          <mxGeometry x="40" y="320" width="40" height="40" as="geometry" />
        </mxCell>
        <mxCell id="ARi8t12aquT4fOo3gEag-2" value="" style="edgeStyle=orthogonalEdgeStyle;rounded=0;orthogonalLoop=1;jettySize=auto;html=1;fontColor=#6C8EBF;startArrow=none;startFill=0;strokeColor=#6C8EBF;strokeWidth=2;" edge="1" parent="glnwGWGweWK_WqxS2E-v-1" source="glnwGWGweWK_WqxS2E-v-7" target="0BHI-9AKwm8CY4AdWAao-1">
          <mxGeometry relative="1" as="geometry" />
        </mxCell>
        <mxCell id="glnwGWGweWK_WqxS2E-v-7" value="Fetches List&amp;nbsp; of Customers" style="rounded=1;whiteSpace=wrap;html=1;fillColor=#dae8fc;strokeColor=#6c8ebf;fontColor=#6C8EBF;" vertex="1" parent="glnwGWGweWK_WqxS2E-v-1">
          <mxGeometry x="140" y="320" width="120" height="40" as="geometry" />
        </mxCell>
        <mxCell id="glnwGWGweWK_WqxS2E-v-9" value="API call with customer id" style="text;html=1;align=center;verticalAlign=middle;whiteSpace=wrap;rounded=1;glass=0;shadow=0;dashed=1;strokeColor=#6C8EBF;fontColor=#6C8EBF;" vertex="1" parent="glnwGWGweWK_WqxS2E-v-1">
          <mxGeometry x="350" y="240" width="140" height="20" as="geometry" />
        </mxCell>
        <mxCell id="glnwGWGweWK_WqxS2E-v-11" value="Create &amp;amp; Save Issue" style="rounded=1;whiteSpace=wrap;html=1;fillColor=#dae8fc;strokeColor=#6c8ebf;fontColor=#6C8EBF;" vertex="1" parent="glnwGWGweWK_WqxS2E-v-1">
          <mxGeometry x="520" y="320" width="120" height="40" as="geometry" />
        </mxCell>
        <mxCell id="glnwGWGweWK_WqxS2E-v-12" value="" style="verticalLabelPosition=bottom;html=1;fillColor=#6ABD46;strokeColor=#ffffff;verticalAlign=top;align=center;points=[[0.085,0.085,0],[0.915,0.085,0],[0.915,0.915,0],[0.085,0.915,0],[0.25,0,0],[0.5,0,0],[0.75,0,0],[1,0.25,0],[1,0.5,0],[1,0.75,0],[0.75,1,0],[0.5,1,0],[0.25,1,0],[0,0.75,0],[0,0.5,0],[0,0.25,0]];pointerEvents=1;shape=mxgraph.cisco_safe.compositeIcon;bgIcon=mxgraph.cisco_safe.architecture.generic_appliance;resIcon=mxgraph.cisco_safe.architecture.automated_system;fontColor=#6C8EBF;" vertex="1" parent="glnwGWGweWK_WqxS2E-v-1">
          <mxGeometry x="560" y="119.5" width="40" height="40" as="geometry" />
        </mxCell>
        <mxCell id="glnwGWGweWK_WqxS2E-v-13" style="edgeStyle=orthogonalEdgeStyle;rounded=0;orthogonalLoop=1;jettySize=auto;html=1;strokeColor=#6C8EBF;strokeWidth=2;fontColor=#6C8EBF;entryX=0.5;entryY=1;entryDx=0;entryDy=0;dashed=1;entryPerimeter=0;exitX=0.5;exitY=0;exitDx=0;exitDy=0;startArrow=classic;startFill=1;" edge="1" parent="glnwGWGweWK_WqxS2E-v-1">
          <mxGeometry relative="1" as="geometry">
            <mxPoint x="579.5" y="159.5" as="targetPoint" />
            <mxPoint x="579.5" y="319.5" as="sourcePoint" />
          </mxGeometry>
        </mxCell>
        <mxCell id="glnwGWGweWK_WqxS2E-v-14" value="Delivery Consultant" style="text;html=1;strokeColor=none;fillColor=none;align=center;verticalAlign=middle;whiteSpace=wrap;rounded=0;fontColor=#6C8EBF;" vertex="1" parent="glnwGWGweWK_WqxS2E-v-1">
          <mxGeometry x="90" y="129" width="60" height="30.5" as="geometry" />
        </mxCell>
        <mxCell id="glnwGWGweWK_WqxS2E-v-15" value="SDW" style="text;html=1;strokeColor=none;fillColor=none;align=center;verticalAlign=middle;whiteSpace=wrap;rounded=0;fontColor=#6C8EBF;" vertex="1" parent="glnwGWGweWK_WqxS2E-v-1">
          <mxGeometry x="310" y="130" width="60" height="20" as="geometry" />
        </mxCell>
        <mxCell id="glnwGWGweWK_WqxS2E-v-16" value="Task Management" style="text;html=1;strokeColor=none;fillColor=none;align=center;verticalAlign=middle;whiteSpace=wrap;rounded=0;fontColor=#6C8EBF;" vertex="1" parent="glnwGWGweWK_WqxS2E-v-1">
          <mxGeometry x="480" y="119.5" width="90" height="40" as="geometry" />
        </mxCell>
        <mxCell id="glnwGWGweWK_WqxS2E-v-22" value="&lt;b&gt;8&lt;/b&gt;" style="ellipse;whiteSpace=wrap;html=1;aspect=fixed;strokeWidth=2;fontFamily=Tahoma;spacingBottom=4;spacingRight=2;strokeColor=#d3d3d3;rounded=1;shadow=0;glass=0;dashed=1;fontColor=#6C8EBF;fillColor=none;" vertex="1" parent="glnwGWGweWK_WqxS2E-v-1">
          <mxGeometry x="580" y="225" width="20" height="20" as="geometry" />
        </mxCell>
        <mxCell id="glnwGWGweWK_WqxS2E-v-23" value="" style="verticalLabelPosition=bottom;html=1;fillColor=#6ABD46;strokeColor=#ffffff;verticalAlign=top;align=center;points=[[0.085,0.085,0],[0.915,0.085,0],[0.915,0.915,0],[0.085,0.915,0],[0.25,0,0],[0.5,0,0],[0.75,0,0],[1,0.25,0],[1,0.5,0],[1,0.75,0],[0.75,1,0],[0.5,1,0],[0.25,1,0],[0,0.75,0],[0,0.5,0],[0,0.25,0]];pointerEvents=1;shape=mxgraph.cisco_safe.compositeIcon;bgIcon=mxgraph.cisco_safe.architecture.generic_appliance;resIcon=mxgraph.cisco_safe.architecture.automated_system;fontColor=#6C8EBF;" vertex="1" parent="glnwGWGweWK_WqxS2E-v-1">
          <mxGeometry x="280" y="119.5" width="40" height="40" as="geometry" />
        </mxCell>
        <mxCell id="r62NwkxYwDVpL8HsWr-V-2" value="" style="edgeStyle=orthogonalEdgeStyle;rounded=0;orthogonalLoop=1;jettySize=auto;html=1;fontColor=#6C8EBF;startArrow=none;startFill=0;strokeColor=#6C8EBF;strokeWidth=2;" edge="1" parent="glnwGWGweWK_WqxS2E-v-1" source="r62NwkxYwDVpL8HsWr-V-0" target="glnwGWGweWK_WqxS2E-v-5">
          <mxGeometry relative="1" as="geometry" />
        </mxCell>
        <mxCell id="r62NwkxYwDVpL8HsWr-V-0" value="" style="verticalLabelPosition=bottom;html=1;fillColor=#6ABD46;strokeColor=#ffffff;verticalAlign=top;align=center;points=[[0.085,0.085,0],[0.915,0.085,0],[0.915,0.915,0],[0.085,0.915,0],[0.25,0,0],[0.5,0,0],[0.75,0,0],[1,0.25,0],[1,0.5,0],[1,0.75,0],[0.75,1,0],[0.5,1,0],[0.25,1,0],[0,0.75,0],[0,0.5,0],[0,0.25,0]];pointerEvents=1;shape=mxgraph.cisco_safe.compositeIcon;bgIcon=mxgraph.cisco_safe.architecture.generic_appliance;resIcon=mxgraph.cisco_safe.architecture.automated_system;fontColor=#6C8EBF;" vertex="1" parent="glnwGWGweWK_WqxS2E-v-1">
          <mxGeometry x="40" y="230" width="40" height="40" as="geometry" />
        </mxCell>
        <mxCell id="r62NwkxYwDVpL8HsWr-V-3" value="CALM" style="text;html=1;strokeColor=none;fillColor=none;align=center;verticalAlign=middle;whiteSpace=wrap;rounded=0;fontColor=#6C8EBF;" vertex="1" parent="glnwGWGweWK_WqxS2E-v-1">
          <mxGeometry x="70" y="234.75" width="60" height="30.5" as="geometry" />
        </mxCell>
        <mxCell id="0BHI-9AKwm8CY4AdWAao-0" value="IAM" style="text;html=1;strokeColor=none;fillColor=none;align=center;verticalAlign=middle;whiteSpace=wrap;rounded=0;fontColor=#6C8EBF;" vertex="1" parent="glnwGWGweWK_WqxS2E-v-1">
          <mxGeometry x="30" y="370" width="60" height="20" as="geometry" />
        </mxCell>
        <mxCell id="ARi8t12aquT4fOo3gEag-5" style="edgeStyle=orthogonalEdgeStyle;rounded=0;orthogonalLoop=1;jettySize=auto;html=1;entryX=0;entryY=0.5;entryDx=0;entryDy=0;fontColor=#6C8EBF;startArrow=none;startFill=0;strokeColor=#6C8EBF;strokeWidth=2;" edge="1" parent="glnwGWGweWK_WqxS2E-v-1" source="0BHI-9AKwm8CY4AdWAao-1" target="glnwGWGweWK_WqxS2E-v-11">
          <mxGeometry relative="1" as="geometry" />
        </mxCell>
        <mxCell id="0BHI-9AKwm8CY4AdWAao-1" value="Fetches List of Project" style="rounded=1;whiteSpace=wrap;html=1;fillColor=#dae8fc;strokeColor=#6c8ebf;fontColor=#6C8EBF;" vertex="1" parent="glnwGWGweWK_WqxS2E-v-1">
          <mxGeometry x="320" y="320" width="120" height="40" as="geometry" />
        </mxCell>
        <mxCell id="ARi8t12aquT4fOo3gEag-0" value="" style="endArrow=classic;html=1;strokeWidth=2;strokeColor=#6C8EBF;exitX=0.5;exitY=1;exitDx=0;exitDy=0;exitPerimeter=0;entryX=0.5;entryY=0;entryDx=0;entryDy=0;dashed=1;startArrow=classic;startFill=1;" edge="1" parent="glnwGWGweWK_WqxS2E-v-1" source="glnwGWGweWK_WqxS2E-v-23" target="glnwGWGweWK_WqxS2E-v-7">
          <mxGeometry width="50" height="50" relative="1" as="geometry">
            <mxPoint x="283.4000000000001" y="156.60000000000002" as="sourcePoint" />
            <mxPoint x="76.60000000000002" y="323.4" as="targetPoint" />
          </mxGeometry>
        </mxCell>
        <mxCell id="ARi8t12aquT4fOo3gEag-1" value="" style="endArrow=classic;html=1;strokeWidth=2;strokeColor=#6C8EBF;dashed=1;startArrow=classic;startFill=1;" edge="1" parent="glnwGWGweWK_WqxS2E-v-1" target="0BHI-9AKwm8CY4AdWAao-1">
          <mxGeometry width="50" height="50" relative="1" as="geometry">
            <mxPoint x="300" y="160" as="sourcePoint" />
            <mxPoint x="190" y="330" as="targetPoint" />
          </mxGeometry>
        </mxCell>
        <mxCell id="ARi8t12aquT4fOo3gEag-6" value="&lt;b&gt;1&lt;/b&gt;" style="ellipse;whiteSpace=wrap;html=1;aspect=fixed;strokeWidth=2;fontFamily=Tahoma;spacingBottom=4;spacingRight=2;strokeColor=#d3d3d3;rounded=1;shadow=0;glass=0;dashed=1;fontColor=#6C8EBF;fillColor=none;" vertex="1" parent="glnwGWGweWK_WqxS2E-v-1">
          <mxGeometry x="60.72000000000003" y="190" width="20" height="20" as="geometry" />
        </mxCell>
        <mxCell id="ARi8t12aquT4fOo3gEag-7" value="&lt;b&gt;2&lt;/b&gt;" style="ellipse;whiteSpace=wrap;html=1;aspect=fixed;strokeWidth=2;fontFamily=Tahoma;spacingBottom=4;spacingRight=2;strokeColor=#d3d3d3;rounded=1;shadow=0;glass=0;dashed=1;fontColor=#6C8EBF;fillColor=none;" vertex="1" parent="glnwGWGweWK_WqxS2E-v-1">
          <mxGeometry x="60.72000000000003" y="280" width="20" height="20" as="geometry" />
        </mxCell>
        <mxCell id="ARi8t12aquT4fOo3gEag-8" value="&lt;b&gt;3&lt;/b&gt;" style="ellipse;whiteSpace=wrap;html=1;aspect=fixed;strokeWidth=2;fontFamily=Tahoma;spacingBottom=4;spacingRight=2;strokeColor=#d3d3d3;rounded=1;shadow=0;glass=0;dashed=1;fontColor=#6C8EBF;fillColor=none;" vertex="1" parent="glnwGWGweWK_WqxS2E-v-1">
          <mxGeometry x="100" y="340" width="20" height="20" as="geometry" />
        </mxCell>
        <mxCell id="ARi8t12aquT4fOo3gEag-9" value="&lt;b&gt;4&lt;/b&gt;" style="ellipse;whiteSpace=wrap;html=1;aspect=fixed;strokeWidth=2;fontFamily=Tahoma;spacingBottom=4;spacingRight=2;strokeColor=#d3d3d3;rounded=1;shadow=0;glass=0;dashed=1;fontColor=#6C8EBF;fillColor=none;" vertex="1" parent="glnwGWGweWK_WqxS2E-v-1">
          <mxGeometry x="220" y="240" width="20" height="20" as="geometry" />
        </mxCell>
        <mxCell id="ARi8t12aquT4fOo3gEag-10" value="&lt;b&gt;5&lt;/b&gt;" style="ellipse;whiteSpace=wrap;html=1;aspect=fixed;strokeWidth=2;fontFamily=Tahoma;spacingBottom=4;spacingRight=2;strokeColor=#d3d3d3;rounded=1;shadow=0;glass=0;dashed=1;fontColor=#6C8EBF;fillColor=none;" vertex="1" parent="glnwGWGweWK_WqxS2E-v-1">
          <mxGeometry x="280" y="340" width="20" height="20" as="geometry" />
        </mxCell>
        <mxCell id="ARi8t12aquT4fOo3gEag-11" value="&lt;b&gt;6&lt;/b&gt;" style="ellipse;whiteSpace=wrap;html=1;aspect=fixed;strokeWidth=2;fontFamily=Tahoma;spacingBottom=4;spacingRight=2;strokeColor=#d3d3d3;rounded=1;shadow=0;glass=0;dashed=1;fontColor=#6C8EBF;fillColor=none;" vertex="1" parent="glnwGWGweWK_WqxS2E-v-1">
          <mxGeometry x="310" y="240" width="20" height="20" as="geometry" />
        </mxCell>
        <mxCell id="ARi8t12aquT4fOo3gEag-12" value="&lt;b&gt;7&lt;/b&gt;" style="ellipse;whiteSpace=wrap;html=1;aspect=fixed;strokeWidth=2;fontFamily=Tahoma;spacingBottom=4;spacingRight=2;strokeColor=#d3d3d3;rounded=1;shadow=0;glass=0;dashed=1;fontColor=#6C8EBF;fillColor=none;" vertex="1" parent="glnwGWGweWK_WqxS2E-v-1">
          <mxGeometry x="470" y="340" width="20" height="20" as="geometry" />
        </mxCell>
      </root>
    </mxGraphModel>
  </diagram>
</mxfile>
